<svg xmlns="http://www.w3.org/2000/svg" width="1050" height="42" x="525" y="603.5" viewBox="0 0 500 20"><g pointer-events="all"><g stroke=""><path d="M107.497 14.912l7.386-10.022h29.542l-7.385 10.022h-29.543zM0 4.517h93.308v10H0z"/><path d="M74.534 14.538l7.385-10.023h29.543l-7.386 10.023H74.534zM419.53 15.485l7.385-10.023h29.542l-7.386 10.023H419.53zM140.505 15.117l7.386-10.023h29.542l-7.385 10.023h-29.543zM173.748 15.117l7.386-10.023h29.542l-7.385 10.023h-29.543zM206.721 15.11l7.386-10.023h29.542l-7.385 10.022H206.72zM266.386 15.19l7.386-10.022h29.542L295.93 15.19h-29.543zM299.394 15.395l7.386-10.023h29.542l-7.386 10.023h-29.542zM332.637 15.395l7.386-10.023h29.542l-7.385 10.023h-29.543z"/></g></g></svg>